<svg xmlns="http://www.w3.org/2000/svg" width="98" height="40" fill="none"><path fill="#FFFFFF" d="M4.381 25.52H1.879V15.51H8.07v2.26H4.381v7.75ZM13.884 25.706a5.766 5.766 0 0 1-2.688-.644 5.062 5.062 0 0 1-1.96-1.844c-.486-.792-.729-1.692-.729-2.703 0-1.01.243-1.911.73-2.703a4.958 4.958 0 0 1 1.959-1.83 5.665 5.665 0 0 1 2.688-.658c.963 0 1.854.22 2.674.658a4.933 4.933 0 0 1 1.974 1.83c.486.792.729 1.692.729 2.703 0 1.01-.243 1.911-.73 2.703a5.035 5.035 0 0 1-1.973 1.844 5.68 5.68 0 0 1-2.674.644Zm0-2.288c.534 0 1.015-.124 1.444-.372a2.573 2.573 0 0 0 1.016-1.03c.248-.438.371-.938.371-1.501s-.123-1.063-.371-1.502a2.573 2.573 0 0 0-1.016-1.03 2.834 2.834 0 0 0-1.444-.37c-.534 0-1.02.123-1.459.37a2.702 2.702 0 0 0-1.015 1.03c-.238.439-.357.94-.357 1.502 0 .563.119 1.063.357 1.502.248.438.586.781 1.015 1.03.44.247.925.37 1.46.37ZM24.853 15.51c.791 0 1.482.138 2.073.415.591.276 1.049.667 1.373 1.172.324.506.486 1.092.486 1.76 0 .666-.162 1.253-.486 1.758-.315.505-.772.901-1.373 1.187-.59.276-1.282.415-2.073.415h-1.159v3.303h-2.502V15.51h3.66Zm-.115 4.576c.477 0 .844-.114 1.101-.343.267-.229.4-.524.4-.887 0-.353-.133-.643-.4-.872-.257-.229-.624-.343-1.1-.343h-1.045v2.445h1.044ZM35.125 25.706a5.766 5.766 0 0 1-2.689-.644 5.061 5.061 0 0 1-1.959-1.844c-.486-.792-.73-1.692-.73-2.703 0-1.01.244-1.911.73-2.703a4.957 4.957 0 0 1 1.96-1.83 5.665 5.665 0 0 1 2.688-.658c.962 0 1.854.22 2.674.658a4.933 4.933 0 0 1 1.973 1.83c.486.792.73 1.692.73 2.703 0 1.01-.244 1.911-.73 2.703a5.035 5.035 0 0 1-1.973 1.844 5.681 5.681 0 0 1-2.674.644Zm0-2.288c.533 0 1.015-.124 1.444-.372a2.574 2.574 0 0 0 1.015-1.03c.248-.438.372-.938.372-1.501s-.124-1.063-.372-1.502a2.574 2.574 0 0 0-1.015-1.03 2.834 2.834 0 0 0-1.444-.37c-.534 0-1.02.123-1.459.37a2.7 2.7 0 0 0-1.015 1.03c-.239.439-.358.94-.358 1.502 0 .563.12 1.063.358 1.502a2.7 2.7 0 0 0 1.015 1.03c.439.247.925.37 1.459.37ZM46.98 25.706c-.953 0-1.84-.215-2.66-.644a4.984 4.984 0 0 1-1.945-1.83c-.486-.791-.73-1.697-.73-2.717s.244-1.926.73-2.717a4.984 4.984 0 0 1 1.945-1.83 5.651 5.651 0 0 1 2.66-.644c.82 0 1.582.157 2.288.472a4.89 4.89 0 0 1 1.802 1.373 5.044 5.044 0 0 1 1.058 2.088h-2.603a2.61 2.61 0 0 0-.986-1.187c-.439-.305-.954-.458-1.545-.458-.524 0-1 .129-1.43.386a2.702 2.702 0 0 0-1.015 1.03 3.064 3.064 0 0 0-.358 1.487c0 .553.12 1.049.358 1.487.248.439.586.787 1.015 1.044.43.248.906.372 1.43.372.61 0 1.135-.148 1.573-.443.439-.306.763-.71.972-1.216h2.589c-.2.81-.548 1.516-1.044 2.116a4.955 4.955 0 0 1-1.802 1.359 5.588 5.588 0 0 1-2.302.472ZM58.844 20.315l4.004 5.205h-3.075l-3.303-4.404v4.404h-2.503V15.51h2.503v4.247l3.117-4.247h2.932l-3.675 4.805ZM68.277 25.706a5.766 5.766 0 0 1-2.688-.644 5.061 5.061 0 0 1-1.96-1.844c-.485-.792-.729-1.692-.729-2.703 0-1.01.244-1.911.73-2.703a4.957 4.957 0 0 1 1.959-1.83 5.665 5.665 0 0 1 2.688-.658c.963 0 1.854.22 2.674.658a4.933 4.933 0 0 1 1.974 1.83c.486.792.729 1.692.729 2.703 0 1.01-.243 1.911-.73 2.703a5.035 5.035 0 0 1-1.973 1.844 5.68 5.68 0 0 1-2.674.644Zm0-2.288c.534 0 1.016-.124 1.445-.372a2.574 2.574 0 0 0 1.015-1.03c.248-.438.372-.938.372-1.501s-.124-1.063-.372-1.502a2.574 2.574 0 0 0-1.015-1.03 2.834 2.834 0 0 0-1.445-.37c-.534 0-1.02.123-1.458.37a2.702 2.702 0 0 0-1.016 1.03c-.238.439-.357.94-.357 1.502 0 .563.119 1.063.357 1.502.248.438.587.781 1.016 1.03.438.247.924.37 1.458.37ZM78.088 25.52h-2.503V15.51h8.523v10.01h-2.503v-7.75h-3.517v7.75ZM90.502 18.785c.734 0 1.387.138 1.959.414a3.083 3.083 0 0 1 1.358 1.173c.325.505.487 1.101.487 1.788 0 .686-.162 1.282-.487 1.787a3.208 3.208 0 0 1-1.358 1.173c-.572.267-1.225.4-1.96.4h-3.674V15.51h2.502v3.275h1.173Zm4.776 6.735V15.51h2.502v10.01h-2.502Zm-4.962-2.13c.457 0 .815-.11 1.072-.33.267-.228.4-.529.4-.9 0-.382-.133-.682-.4-.901-.257-.22-.615-.33-1.072-.33h-.987v2.46h.987Z"/></svg>
